<?xml version="1.0" encoding="iso-8859-1"?>
<!-- Generator: Adobe Illustrator 16.0.0, SVG Export Plug-In . SVG Version: 6.00 Build 0)  -->
<!DOCTYPE svg PUBLIC "-//W3C//DTD SVG 1.1//EN" "http://www.w3.org/Graphics/SVG/1.1/DTD/svg11.dtd">
<svg version="1.1" id="Capa_1" xmlns="http://www.w3.org/2000/svg" xmlns:xlink="http://www.w3.org/1999/xlink" x="0px" y="0px"
	 width="977px" height="977px" viewBox="0 0 977 977" style="enable-background:new 0 0 977 977;" xml:space="preserve">
<g>
    <g>
        <rect x="0" y="0" width="977" height="977" fill="#007EE5"/>
    </g>

	<g>
		<path d="M309.162,555.656h358.678v-162.29H309.162V555.656z M377.162,461.366h222.678v26.29H377.162V461.366z"/>
		<rect x="312.221" y="591.243" width="92.896" height="68"/>
		<rect x="442.052" y="591.243" width="92.896" height="68"/>
		<rect x="571.884" y="591.243" width="92.896" height="68"/>
		<rect x="312.221" y="696.865" width="92.896" height="68"/>
		<rect x="442.052" y="696.865" width="92.896" height="68"/>
		<rect x="571.884" y="696.865" width="92.896" height="68"/>
		<rect x="312.221" y="802.486" width="92.896" height="68"/>
		<rect x="442.052" y="802.486" width="92.896" height="68"/>
		<rect x="571.884" y="802.486" width="92.896" height="68"/>
		<path d="M649.104,97.036L552.016,0h-223.09v202.765H196.469V977h584.062V202.765H649.104V97.036z M581.104,202.765v68v24.573
			H396.926v-24.573v-68V68h126.935l57.245,57.214v77.551H581.104z M712.531,270.765V909H264.469V270.765h64.457v25.848H301.28v68
			h374.441v-68h-26.616v-25.848H712.531z"/>
	</g>
</g>
<g>
</g>
<g>
</g>
<g>
</g>
<g>
</g>
<g>
</g>
<g>
</g>
<g>
</g>
<g>
</g>
<g>
</g>
<g>
</g>
<g>
</g>
<g>
</g>
<g>
</g>
<g>
</g>
<g>
</g>
</svg>
